<svg width="1512" height="1719" viewBox="0 0 1512 1719" fill="none" xmlns="http://www.w3.org/2000/svg">
<g clip-path="url(#clip0_78_6)">
<g filter="url(#filter0_d_78_6)">
<rect width="1512" height="2165" fill="#F8E9DD"/>
</g>
<path d="M1514 466.839C1514 466.839 1323.56 586 1123.13 586C968.489 586 848.859 554.333 710.264 510.718C595.801 474.697 477.217 462.664 315.893 466.839C175.149 470.482 2.49597 586 2.49597 586L-14 -85.5H1514V466.839Z" fill="white"/>
<path d="M0 1342.74C0 1342.74 190.5 1229 391 1229C545.69 1229 665.359 1259.23 804 1300.86C918.5 1335.24 1037.12 1346.73 1198.5 1342.74C1339.29 1339.26 1512 1229 1512 1229V1821.5L763 1846.5L0 1829V1342.74Z" fill="white"/>
</g>
<defs>
<filter id="filter0_d_78_6" x="-4" y="0" width="1520" height="2173" filterUnits="userSpaceOnUse" color-interpolation-filters="sRGB">
<feFlood flood-opacity="0" result="BackgroundImageFix"/>
<feColorMatrix in="SourceAlpha" type="matrix" values="0 0 0 0 0 0 0 0 0 0 0 0 0 0 0 0 0 0 127 0" result="hardAlpha"/>
<feOffset dy="4"/>
<feGaussianBlur stdDeviation="2"/>
<feComposite in2="hardAlpha" operator="out"/>
<feColorMatrix type="matrix" values="0 0 0 0 0 0 0 0 0 0 0 0 0 0 0 0 0 0 0.25 0"/>
<feBlend mode="normal" in2="BackgroundImageFix" result="effect1_dropShadow_78_6"/>
<feBlend mode="normal" in="SourceGraphic" in2="effect1_dropShadow_78_6" result="shape"/>
</filter>
<clipPath id="clip0_78_6">
<rect width="1512" height="1719" fill="white"/>
</clipPath>
</defs>
</svg>
